<?xml version="1.0" encoding="UTF-8"?>
<!DOCTYPE svg PUBLIC "-//W3C//DTD SVG 1.1//EN" "http://www.w3.org/Graphics/SVG/1.1/DTD/svg11.dtd">
<!-- Creator: CorelDRAW -->
<svg xmlns="http://www.w3.org/2000/svg" xml:space="preserve" width="188.148mm" height="188.148mm" version="1.1" style="shape-rendering:geometricPrecision; text-rendering:geometricPrecision; image-rendering:optimizeQuality; fill-rule:evenodd; clip-rule:evenodd"
viewBox="0 0 18814.8 18814.8"
 xmlns:xlink="http://www.w3.org/1999/xlink"
 xmlns:xodm="http://www.corel.com/coreldraw/odm/2003">
 <defs>
  <style type="text/css">
   <![CDATA[
    .fil0 {fill:#006633}
    .fil1 {fill:white}
   ]]>
  </style>
 </defs>
 <g id="Layer_x0020_1">
  <metadata id="CorelCorpID_0Corel-Layer"/>
  <path class="fil0" d="M12445.71 11147.29c230,-403.14 601.57,-688.83 1166.56,-688.83 79.55,0 160.4,16.11 236.43,45.04l11.57 -50.12 1043.38 0 -404.35 1909.4c-7.24,39.5 -17.41,87.95 -17.41,127.56 0,5.65 0.32,18.06 2.14,25.28 20.33,11.3 78.64,13.58 97.63,13.58 29.34,0 68.92,-17.41 103.43,-36.43l626.29 -2937.05 1075.27 -145.31 -245.39 1154.24c139.55,-66.59 288.72,-111.27 440.08,-111.27 400.63,0 737.67,412.59 737.67,798.57 0,50.8 -1.32,98.99 -14.5,148.28l-207.69 967.41c-10.73,46.5 -35.16,120.99 -36.58,169.15 13.49,2.09 30.41,2.56 38.79,2.56 18.61,0 60.44,0.67 77.96,-5.44l299.46 -112.26 -99.03 304.16c-58.72,180.35 -151.01,368.53 -313.1,477.33 -112.2,75.31 -228.89,95.92 -361.17,95.92 -435.05,0 -671.68,-294.16 -671.68,-712.29 0,-96.38 12.19,-193.45 34.13,-287.26l191.44 -906.84c4.18,-29.66 7.89,-60.05 7.89,-89.96 0,-44.43 -9.9,-160.67 -74.39,-160.67 -71.45,0 -126.5,16.51 -181.98,50l-449.64 2107.02 -1045.76 0 17.3 -81.16c-100,48.54 -205.23,81.16 -309.15,81.16 -262.49,0 -507.91,-73.49 -654.72,-262.22 -153.81,151.76 -340.25,262.16 -559.45,287.26l32.57 0.52c1150.6,19.79 2302.74,129.54 3434.98,336.1 148.81,27.15 297.94,54.65 444.94,90.52 150,36.61 296.48,82.44 442.69,131.86l879.06 297.15 -927.93 2.74c-306.98,0.9 -596.55,-23.11 -901.6,-48.54 -1537.56,-128.19 -3089.69,-150.82 -4628.67,-33.23 -3634.71,277.7 -7217.9,1346.14 -10018.31,3762.17 -217.7,187.82 -548.47,167.4 -738.53,-49.39 -189.9,-216.62 -168.02,-549.55 48.59,-739.45l1.76 -1.55 1.82 -1.49c2379.44,-1961.08 5402.12,-3077.32 8429.61,-3521.51 1083.17,-158.91 2180.22,-234.37 3275.2,-228.28 -412.87,-51.43 -654.8,-354.7 -654.8,-790.78 0,-53.49 1.16,-107.63 3.57,-162.16 -253.17,520.61 -664.38,930.28 -1260.51,930.28 -290.29,0 -550.23,-89.44 -685.79,-313.76 -194.76,158.09 -437.08,313.76 -659.18,313.76 -262.5,0 -513.24,-74.04 -659.45,-271.02 -178.21,139.17 -396.4,271.02 -604.31,271.02 -262.49,0 -507.91,-73.49 -654.72,-262.22 -175.63,173.29 -393.82,292.67 -654.72,292.67 -462.06,0 -748.43,-282.75 -780.36,-716.07 -32.35,62.88 -70.51,123.38 -114.79,180.94 -295.25,383.8 -773.28,530.06 -1241.58,530.06 -205.86,0 -419.55,-20.81 -616.13,-84.14 -417.9,-134.62 -659.52,-435.25 -659.52,-886.99 0,-525.18 384.53,-884.86 900.08,-884.86 267.02,0 499.03,98.63 561.43,379.44l38.15 171.69 -175.22 15.15c-126.22,10.91 -299.44,40.72 -383.69,146.93 -56.38,71.07 -69.38,170.04 -69.38,257.93 0,209.63 144.3,333.23 348.46,333.23 318.55,0 404.28,-304.13 404.28,-571.78 0,-871.37 -1096.27,-1073.54 -1096.27,-1918.48 0,-86.39 13.11,-171.89 38.55,-254.42 165.81,-537.84 792.26,-843.59 1323.38,-843.59 184.61,0 377.41,19.43 550.14,87.87 296.08,117.31 456.52,352.41 456.52,675.17 0,346.29 -201.52,666.61 -575.25,666.61 -135.8,0 -256.03,-57.34 -344.77,-159.72l-120.76 -139.34 158.63 -94c93.95,-55.68 152.9,-197.77 152.9,-304 0,-138.72 -83.17,-186.05 -216.5,-186.05 -188.62,0 -318.01,89.99 -318.01,287.55 0,105.51 24.55,199.74 77.15,291.18 62.53,108.68 157.58,202.25 249.8,285.94 117,106.18 238.97,205.34 351.17,317.04 225.44,224.44 368.6,460.36 429.7,743.01 178.19,-649.19 589.67,-1197.35 1372.29,-1197.35 79.55,0 160.4,16.11 236.43,45.04l11.57 -50.12 1043.38 0 -404.35 1909.4c-7.24,39.5 -17.41,87.95 -17.41,127.56 0,5.65 0.32,18.06 2.14,25.28 20.33,11.3 78.64,13.58 97.63,13.58 33.5,0 80.05,-22.28 120.3,-46.09 5.74,-61.2 15.8,-122.15 28.48,-182.01l391.29 -1847.72 1045.68 0 -404.35 1909.4c-7.24,39.5 -17.41,87.95 -17.41,127.56 0,5.65 0.32,18.06 2.14,25.28 20.33,11.3 78.64,13.58 97.63,13.58 57.36,0 143.76,-55.3 206.2,-102.07 5.2,-43.55 14.03,-87.07 24.35,-128.7l390.72 -1845.05 1045.69 0 -404.8 1911.52c-10.45,49.36 -22.04,105.31 -22.04,155.89 0,1.51 0.02,3.44 0.09,5.52 12.91,2.36 30.44,2.89 38.78,2.89 9.33,0 18.64,-0.73 27.85,-2.17 252.79,-39.29 455.06,-553.95 521.42,-761.36 55.96,-174.89 105.33,-381.83 125.05,-577.02 -205.98,-31.05 -310.64,-231.69 -310.64,-434.08 0,-225.32 227.63,-402.69 443.3,-402.69 342.91,0 478.82,309.8 478.82,610.78 0,59.54 -2,121.26 -6.04,184.63zm-9484 -132.54l-92.26 9.22c-44.18,38.29 -84.86,95.07 -104.78,125.47 -94.54,144.28 -164.68,326.76 -216.16,490.85 -5.17,16.46 -10.21,32.98 -15.12,49.54 95.57,-34.14 182.49,-90.65 255.38,-165.75 104.3,-107.47 182.19,-258.81 183.84,-410.84 0.2,-18.6 -2.3,-65.02 -10.9,-98.49zm-1166.82 -41.8c-141.67,-45.83 -277.08,-110.33 -401.84,-191.64 -306.48,-199.72 -541.79,-506.66 -663.63,-850.84 -70.53,-199.22 -107.25,-410.59 -101.98,-622.1 2.93,-117.8 18.53,-233.02 50.43,-346.58 14.43,-51.38 32.6,-101.22 49,-151.93l1.66 -5.13 2.01 -4.99c20.08,-49.9 37.87,-100.23 60.3,-149.23 44.31,-103.86 98.29,-203.39 156.11,-300.28l1.66 -2.72c62.76,-100.37 131.96,-196.68 209.68,-286.04 161.6,-185.78 355.69,-345.26 571.09,-464.82 217.31,-120.61 452.78,-208.4 694.56,-265.19 240.43,-56.47 486.88,-86.76 733.66,-93.89 486.71,-14.05 973.25,46.1 1449.64,142.23 466.04,94.04 921.79,230.82 1373.04,379.2 357.82,117.65 716.89,234.07 1079.6,336.27l24.26 -39.27 129.82 76.13c6.29,3.69 12.66,7.27 19.04,10.85 5.68,1.57 11.36,3.13 17.06,4.65 202.04,53.8 405.73,101.08 610.33,144.08 194.95,40.98 391.15,76.75 588.39,104.83 187.1,26.63 375.05,46.1 563.34,61.91 175.91,14.77 352.25,23.64 528.72,27.59 162.88,3.64 325.69,1.19 488.52,-3.76 147.18,-4.47 294.37,-11.72 441.18,-23.12 240.07,-18.63 479.15,-45.75 717.46,-80.19 88.46,-12.78 176.78,-26.53 264.95,-41.22 65.05,-10.85 130.26,-21.55 195.08,-33.7 55.53,-10.41 110.64,-20.59 166.3,-30.3l122.61 -22.3c-114.11,-65.41 -222.93,-141.8 -312.83,-212.36 -176.16,32.59 -353.07,61.05 -530.5,85.75 -165.81,38.63 -331.84,73.69 -499.84,101.62 -269.17,44.73 -538.21,80.49 -810.68,97.82 -323.32,20.56 -646.85,25.49 -970.34,5.26 -360.65,-22.55 -720.34,-67.2 -1075.07,-136.23 -376.39,-73.24 -748.47,-171.41 -1115.12,-283.32 -370.81,-113.18 -737.39,-239.57 -1105.82,-360.15 -355.38,-116.31 -715.05,-227.2 -1081.16,-304.64 -174.77,-36.97 -351.21,-67.38 -528.86,-86.61 -86.16,-9.33 -172.71,-15.75 -259.27,-20.07l-64.09 -3.2 -99.69 -2.65 -96.69 -0.4c-328.54,-1.28 -659.73,27.26 -981.9,92.48 -276.97,56.07 -549.54,154.03 -793.79,296.97 -202.93,118.77 -383.78,275.91 -529.23,460.69 -61.7,78.39 -118.36,161.25 -167.66,248 -42.71,75.16 -83.61,152.43 -118.09,231.74 -49.3,113.36 -94,230.73 -129.04,349.35 -12.94,43.8 -25.7,87.66 -37.89,131.67l-38.12 137.55 -280.08 -55.14 16.84 -141.51c1.48,-12.61 3.1,-25.21 4.79,-37.8 4.81,-36.07 9.12,-71.8 15.05,-107.77 22.88,-138.65 53.43,-273.14 94.83,-407.57 65.67,-213.2 160.49,-416.26 280.71,-604.15 158.31,-247.4 375.25,-462.07 615.48,-629.89 280.05,-195.63 608.96,-329.64 937.98,-416.97 176.91,-46.95 357.7,-79.39 539.12,-102.96 184.72,-23.99 370.86,-36.97 556.99,-42.95l58.42 -5.93 44.62 -8.16 125.17 0 74.66 7.76c97.94,3.17 195.16,13.13 292.64,22.5 199.16,19.14 397.2,50.55 593.09,91.1 389.65,80.65 771.07,196.88 1148.35,322.24 365.31,121.38 727.6,251.83 1093.76,370.63 328.92,106.72 661.54,204.79 998.19,284.28 894.21,-155.93 1720.8,-442.2 2524.69,-861.86 24.23,-193.66 64.24,-441.53 158.52,-589.36 157.36,-246.77 313.13,-370.24 588.64,-478.73l94.08 -37.05c119.35,-213.37 257.34,-338.07 492.25,-461.25l89.34 -46.85c95.76,-225.24 219.72,-364.15 440.02,-512.25l84.02 -56.49c71.18,-234.89 179.84,-386.72 382.99,-558.54l78.25 -66.19c45.87,-242.36 137.86,-405.83 321.44,-600.1l71.23 -75.38c19.67,-248.03 93.76,-421.91 255.28,-637.41l141.94 -189.37c25.51,-113.91 73.7,-220.29 148.69,-341.72l211.59 -342.65 47.98 267.77c3.82,-9.72 7.89,-19.43 12.24,-29.14 58.19,-129.94 157.07,-241.53 240.66,-355.83 59.07,-80.75 116.85,-188.57 165.93,-277.38l258.07 -469.21 30.56 534.75c6,104.95 16.5,222.12 38.48,324.89 32.56,152.24 69.82,309.98 48.77,466.43 -1.45,10.74 -3.14,21.34 -5.09,31.8l202.62 -234.74 -31.6 460.84c-10.59,154.42 -38.25,282.45 -92.22,399.74l-47.3 307.97c-47.33,308.18 -146.36,520.27 -359.15,721.7l-37.13 139c-79.85,298.9 -201.03,497.08 -433.13,671.88l-51.21 132.46c-111.02,287.11 -252.53,469.75 -501.11,617.12l-64.61 125.07c-140.84,272.65 -300.91,438.35 -563.19,557.4l-77.36 116.93c-72.82,110.07 -147.1,200.05 -229.9,274.02 87.81,-25.11 183.3,-42.81 291.46,-55.61l138.18 -16.36c209.44,-220.43 410,-325.36 729.36,-398.76l135.72 -31.19c184.64,-242.02 372.97,-367.87 682.8,-475.59l131.96 -45.88c158.08,-261.13 332.26,-406.87 629.08,-548.36l127.21 -60.64c129.87,-278.08 288.12,-442.67 568.71,-617.11l121.08 -75.28c100.11,-292.91 240.53,-475.28 501.42,-682.1l237.16 -188c65.18,-128.48 155.39,-239.86 283.61,-361.74l322.94 -306.98 -63.25 432.63c26.49,-58.63 60.48,-114.74 103.74,-168.42 108.8,-135.03 262.86,-237.77 396.94,-346.69 44.31,-35.99 87.87,-79.52 128.6,-119.62 55.18,-54.31 109.53,-109.66 163.13,-165.53l368.84 -384.47 -106.84 521.96c-26.56,129.76 -51.26,276.54 -57.38,408.83 -8.73,188.33 -13.31,387.9 -86.09,564.55 -27.98,67.93 -64.09,128 -107,181.72l388.67 -304.09 -164.44 487.57c-60.72,180.07 -133.15,322.55 -234.01,444.04l-156.78 361.04c-152.81,351.9 -335.62,570.48 -654.06,742.37l-93.98 164.91c-188.47,330.7 -392.93,525.9 -725.82,659.81l-109.93 151.95c-221.87,306.68 -445.3,477.38 -788.93,573.22l-124.68 138.21c-252.8,280.22 -492.89,425.04 -843.77,482.72l-138.38 123.6c-281.23,251.2 -535.35,369.01 -890.09,388.47l-150.89 107.9c-334.07,238.88 -619.08,324.15 -1023.76,283.11 -126.07,-12.79 -269.17,-71.49 -406.13,-147.55l63.49 266.13 -139.81 41.51c-53.47,15.88 -106.95,31.7 -160.39,47.69 -65.37,19.55 -131.7,36.71 -197.5,54.81 -89.67,24.66 -180.2,46.67 -270.77,67.76 -244.56,56.94 -489.74,105.68 -738.3,141.86 -152.78,22.24 -305.87,41.76 -459.55,56.7 -171.17,16.64 -342.98,27.31 -514.86,33.07 -126.08,4.23 -252.18,6.42 -378.28,5.45 408.45,119.92 825.24,208.82 1252.81,269.5 132.52,-143.26 309.73,-321.37 472.42,-386.45 271.72,-108.68 470.4,-118.13 757.46,-45.66l97.89 24.72c220.84,-103.27 407.78,-124.54 668.92,-87.97l99.94 13.99c209.05,-127.15 390.81,-167.77 656.06,-159.71l101.5 3.08c194.73,-149.27 371.36,-209.41 636.63,-230.54l102.02 -8.13c178.56,-170.23 348.54,-249.33 611.03,-300.14l101.75 -19.7c160.56,-190.04 322.24,-288.13 579.05,-369.03l225.84 -71.15c87.11,-77.65 188.25,-135.98 319.9,-190.9l371.64 -155.03 -117.18 245.68c8.82,-5.7 17.84,-11.25 27.09,-16.64 123.04,-71.69 268.43,-104.76 402.99,-148.93 95.26,-31.27 204.98,-85.06 296.84,-128.6l488.58 -232.47 -292.78 454.58c-56.18,87.95 -116.16,190.2 -157.89,285.84 -62.27,142.68 -123.94,292.58 -232.25,407.42 -7.29,7.73 -14.71,15.22 -22.24,22.45l301.18 -72.81 -294.51 356.43c-98.57,119.3 -195.67,207.24 -307.88,271.12l-217.96 222.64c-218.15,222.83 -422.31,337.53 -712.7,377.16l-111.18 91.23c-239.21,196.3 -453.09,286.68 -743.61,293.4l-118.88 77.76c-257.51,168.44 -478.84,234.35 -766.55,209.24l-125.66 64.05c-273.44,139.38 -500.17,180.67 -782.73,124.46l-131.02 49.9c-286.56,109.16 -516.15,125.56 -790.69,39.3l-135.73 35.51c-325.18,85.07 -572.79,66.19 -870.31,-83.53 -175.04,-88.08 -345.98,-312.35 -456.28,-494.01 -872.48,-166.97 -1692.92,-442.83 -2482.54,-851.1 -37.54,-5.89 -75.06,-11.94 -112.52,-18.38 -217.09,-37.36 -432.59,-84.05 -646.82,-135.15 -219.77,-52.43 -437.98,-111.34 -655.24,-173.29 -110.24,-31.44 -220.27,-63.65 -329.84,-97.34 -110.3,-33.92 -220.11,-69.37 -329.94,-104.73 -430.33,-138.54 -866.48,-261.47 -1309.22,-353.74 -429.26,-89.46 -871.72,-148.41 -1310.9,-141.02 -394.86,6.64 -815.37,70.52 -1167.78,257.61 -161.71,85.86 -310.96,195.95 -436.48,329.56 -61.01,64.93 -115.98,135.35 -166.36,208.77 -48.18,74.16 -94.11,150.43 -131.91,230.46l-1.1 2.32 -1.17 2.28c-19.71,38.37 -35.68,79.14 -53.38,118.57 -15.39,40.07 -32.98,79.87 -46.52,120.49 -23.29,69.84 -36.48,145.35 -41.83,218.75 -11.01,151.22 8.64,305.29 52.62,450.2 41.3,136.07 103.78,266.58 185.91,382.77 73.95,104.63 164.42,197.95 267.19,274.51 133.22,99.24 282.95,171.25 441.26,217.56 188.22,-154.71 422.48,-249.77 708.95,-249.77 443.71,0 803.65,193.06 803.65,681.83 0,628.25 -589.03,1051.9 -1159.3,1167.94 -1.88,28.66 -2.96,57.32 -2.96,85.67 0,84.06 10.77,214.24 96.23,259.31 34.27,18.07 76.99,23.17 115.2,23.17 210.32,0 398.24,-151.38 546.47,-285.15l257.17 -232.08 0 346.41c0,217.09 -60.91,421.16 -219.17,575.7 -226.86,221.52 -580.77,268.55 -883.92,268.55 -558.38,0 -905.15,-422.65 -905.15,-960.98 0,-441.15 108.76,-971.88 365.2,-1365.13zm5685.32 1470.36c6.79,-48.75 16.73,-97.18 28.57,-144.86l261.08 -1235.45c-24.21,-8.2 -49.85,-12.32 -75.45,-12.32 -119.31,0 -236.43,184.44 -284.83,273.94 -118.95,219.97 -190.75,495.74 -223.83,742.5 -14.5,108.16 -22.51,217.64 -22.51,326.79 0,51.64 6.46,141.91 48.69,179.97 23.85,21.49 60.85,26.38 91.68,26.38 52.14,0 133.32,-98.17 176.6,-156.95zm5958.46 0c6.79,-48.75 16.73,-97.18 28.57,-144.86l261.08 -1235.45c-24.21,-8.2 -49.85,-12.32 -75.45,-12.32 -119.31,0 -236.43,184.44 -284.83,273.94 -118.95,219.97 -190.75,495.74 -223.83,742.5 -14.5,108.16 -22.51,217.64 -22.51,326.79 0,51.64 6.46,141.91 48.69,179.97 23.85,21.49 60.85,26.38 91.68,26.38 52.14,0 133.32,-98.17 176.6,-156.95zm2585.92 -7071.81c-0.39,1.87 -0.79,3.73 -1.2,5.59l1.79 -2.75 -0.59 -2.84zm-811.33 687.73c-0.18,0.57 -0.37,1.14 -0.56,1.7l0.65 -0.8 -0.09 -0.9zm-3505.72 1056.34c-142.39,103.9 -301.09,165.39 -505.6,197.6 -193.59,30.48 -463.04,-52.15 -658.53,-135.47 -576.71,266.88 -1162.98,472.01 -1771.02,614.37 27.89,3.19 55.79,6.2 83.71,9.04 84.42,8.58 168.96,15.82 253.56,22.38 812.42,-1.73 1613.64,-101.16 2403.74,-287.5 51.86,-130.09 117.09,-284.87 194.14,-420.42z"/>
  <path class="fil1" d="M17030.13 5427.65c-209.72,368 -424.16,517.05 -732.7,624.29 -308.5,107.22 -838.48,-48.83 -838.48,-48.83 288.61,-352.8 540.85,-513.92 976.51,-538.73 227.32,-12.95 371.8,93.17 594.67,-36.73zm-15853.68 11762.7c4066.32,-3351.36 10169.09,-4308.83 15270.6,-3378.13 358.35,65.38 519,99.49 865.95,216.77 -342.38,1.01 -551.61,-19.94 -888.35,-48.01 -5118.37,-426.74 -10735.63,295.64 -14760.38,3765.81 -153.66,134.71 -387.42,119.35 -522.13,-34.31 -134.71,-153.66 -119.35,-387.42 34.31,-522.13zm1158.39 -4045.29c507.54,0 949.1,-142.11 949.1,-690.25 -208.09,187.79 -411.11,324.82 -649.65,324.82 -197.94,0 -365.43,-101.5 -365.43,-436.48 0,-60.9 5.08,-137.03 15.23,-218.24 482.16,-60.9 1147.03,-416.18 1147.03,-1035.37 0,-355.28 -233.46,-527.84 -649.64,-527.84 -279.19,0 -498.96,103.48 -669.81,265.58 -178.81,-42.35 -381.51,-121.55 -572.41,-263.86 -109.59,-81.54 -213.17,-185.05 -300.95,-309.12 -87.62,-124.08 -159.31,-268.49 -207.51,-426.93 -47.89,-158.13 -71.56,-331.5 -58.85,-506.12 6.32,-86.65 22.4,-175.51 49.32,-256.26 14.3,-42.9 33.73,-87.11 50.37,-130.98 19.5,-42.97 36.88,-87.37 58.65,-129.75 40.79,-86.36 90.25,-168.99 143.07,-250.21 54.74,-79.91 115.47,-156.55 182.21,-228.7 135.13,-142.73 295.86,-265.1 476.51,-360.13 361.45,-192.78 796.17,-269.62 1237.4,-275.57 443.02,-8.92 897.52,50.74 1344.91,144.24 448.34,93.18 891.13,217.76 1324.99,357.91 108.19,34.36 218.19,70.64 328.01,104.12 108.89,33.77 217.99,65.42 326.81,96.44 217.57,62.05 433.94,120.3 648.74,171.59 214.73,51.17 427.35,96.96 637.21,133.18 45.21,7.67 90.15,14.9 135.01,21.88 793.78,413.25 1616.75,692.51 2531.36,860.98 79.43,141.22 258.64,409.59 428.07,494.84 233.18,117.35 437.42,157.05 762.11,72.1 -327.3,-76.44 -301.21,-463.22 -682.42,-601.2l0 0c401.06,-86.53 376.45,-488.1 656.29,-578.7 -282.38,-71.29 -446.16,-47.23 -662.57,39.33 -156.02,62.41 -362.24,287.94 -470.59,407.03 -862.51,-115.03 -1647.76,-334.34 -2409.84,-671.73 111.48,15.64 221.9,29.26 330.85,40.29 201.7,20.52 398.6,33.97 589.15,40.71 190.62,6.21 374.76,3.44 551.13,-1.7 176.5,-6.69 345.26,-16.79 505.12,-32.44 159.89,-15.44 310.9,-35.3 452.26,-55.81 282.87,-41.25 526.39,-93.34 725.57,-139.46 99.55,-23.44 188.3,-44.63 264.85,-66.26 76.74,-20.53 141.9,-38.02 194.2,-53.86 104.77,-31.15 160.7,-47.78 160.7,-47.78 0,0 -57.45,10.41 -165,30.06 -53.56,10.55 -120.11,21.56 -198.13,34.24 -77.84,13.3 -167.65,26.87 -268.25,41.74 -201.29,28.75 -446.19,58.8 -727.56,81.31 -140.67,10.25 -290.42,19.4 -448.43,23.51 -157.79,5.48 -323.67,7.01 -496.64,3.79 -172.79,-4.52 -352.63,-11.69 -538.15,-28.09 -185.48,-14.75 -376.66,-34.94 -572.16,-62.91 -195.65,-27.7 -395.44,-63.71 -598.37,-106.58 -203.02,-42.46 -409.59,-90.39 -618.28,-145.98 -12.2,-3.23 -24.46,-6.74 -36.62,-10 -12.61,-7.31 -25.21,-14.11 -37.76,-21.47 10.35,6.73 20.76,13.03 31.12,19.64 -403.26,-108.77 -816.54,-241.72 -1234.99,-379.32 -437.77,-143.93 -890.95,-280.09 -1355.4,-374.53 -464.46,-93 -940.07,-152.44 -1414.73,-139.25 -237,7.36 -473.33,35.53 -702.89,89.87 -229.5,53.49 -452.16,135.86 -655.04,249.92 -204.2,111.89 -382.27,263.33 -529.63,431.24 -72.68,85.07 -137.71,174.5 -195.3,266.61 -55.57,93.12 -106.48,187.19 -147.51,283.68 -21.96,47.65 -39.07,96.68 -58.28,144.41 -15.92,49.23 -33.07,96.1 -47.27,146.2 -29.49,105.43 -41.98,207.37 -44.74,308.76 -4.79,201.94 31.69,393.66 93.2,566.88 123.06,348.14 356.16,613.65 602.54,773.21 123.04,81.17 249.67,137.01 369.49,175.54 73.53,23.45 144.56,40.63 212.17,53.11 -353.59,383.33 -475.1,1028.11 -475.1,1457.14 0,436.48 263.92,806.98 751.15,806.98zm13868.57 -6919.67l0 0c-235.09,103.62 -366.34,-17.83 -592.78,-30.39 -434.05,-24.06 -701.09,107.29 -1024.94,426.18 0,0 509,213.23 826.14,141.07 317.1,-72.15 545.14,-196.22 791.58,-536.86zm977.59 -1584.29l0 0c-432.33,74.98 -667.23,265.41 -917.2,649.08 0,0 545.23,95.91 841.69,-46.4 296.57,-142.27 494.69,-315.8 665.22,-708.5 -207.74,155.8 -364.13,66.67 -589.71,105.82zm-2851.17 2877.46l0 0c-251.1,49.6 -352.59,-97.22 -570.06,-158.45 -417.83,-117.56 -706.06,-46.51 -1090.04,195.29 0,0 451.12,317.45 775.47,315.36 324.47,-2.1 573.04,-73.88 884.63,-352.2zm2641.16 -3029.45l0 0c0,0 458.08,29.49 690.81,-111.96 232.73,-141.56 381.76,-298.93 495.04,-634.82 -463.56,362.69 -852.42,47.92 -1185.85,746.78zm-2513.13 2880.95l0 0c322.47,-37.09 562.02,-135.38 842.36,-446.13 -244.47,76.77 -361.35,-58.21 -584.5,-95.51 -428.12,-71.56 -706.99,29.84 -1062.66,311.65 0,0 482.48,267.06 804.8,229.99zm-827.22 -1144l0 0c-353.3,81.2 -520.67,200.72 -710.78,419.29 -190.04,218.53 -310.19,743.06 -310.19,743.06 955.43,-114.03 597.75,-643.37 1020.97,-1162.35zm860.49 245.06l0 0c910.29,-317.53 446.27,-758.88 750.85,-1357.16 -329.45,157.05 -467.69,310.03 -606.98,564.61 -139.16,254.62 -143.87,792.55 -143.87,792.55zm-688.07 -262.47l0 0c-165.34,237.77 -227.63,771.98 -227.63,771.98 937.73,-216.55 524.03,-704.84 889.81,-1265.98 -343.27,119.35 -496.81,256.2 -662.18,494zm2149.88 -1780.67l0 0c-312.14,194.06 -433.76,362.05 -545.49,631.12 -111.61,269.16 -58.71,805.04 -58.71,805.04 873,-415.95 363.54,-806.64 604.2,-1436.16zm1168.06 -1326.28l0 0c-228.35,217.07 -302.9,379.94 -351.2,622.97 -48.31,242.99 86.94,671.7 86.94,671.7 631.25,-482.87 182.66,-736.52 264.26,-1294.67zm-531.2 558.8l0 0c-290.97,230.66 -394.62,412.38 -477.56,693.84 -82.89,281.41 26.81,809.7 26.81,809.7 825.58,-512.92 276.94,-847.2 450.75,-1503.54zm1133.19 44.74l0 0c372.66,-215.85 377.3,-472.89 394.79,-850.58 8.34,-179.86 60.35,-432.58 60.35,-432.58 0,0 -212.93,222.68 -305.76,298.07 -288.08,234.04 -490.42,328.65 -524.29,743.01 -19.39,237.38 35.56,349.4 35.56,349.4 0,0 125.81,16.33 339.35,-107.32zm-3893.72 5559l0 0c0,0 352.72,269.07 614.86,277.12 262.31,8.1 465.75,-42.31 728.73,-258.11 -560.37,55.29 -712.17,-402.58 -1343.59,-19.01zm-832.49 213.28l0 0c0,0 320.63,305.84 579.2,342.64 258.64,36.81 465.24,9.23 747.78,-175.58 -561.12,-8.21 -659.15,-480.08 -1326.98,-167.06zm1640.67 -517.33l0 0c0,0 381.5,228.53 644.83,206.82 263.15,-21.73 461.56,-95.12 702.1,-340.83 -552.95,120.43 -758.37,-316.57 -1346.93,134.01zm-3346.04 668.45l0 0c0,0 247.3,367.51 491.28,458.99 244.11,91.52 451.12,108.97 764.6,-10.43 -544.9,-130.35 -536.85,-611.64 -1255.88,-448.56zm4106.25 -1066.46l0 0c0,0 335.23,153.53 550.35,114.17 215.31,-39.41 372.18,-114.8 553.54,-334.29 -455.86,110.21 -670.42,-211.03 -1103.89,220.12zm-3249.45 1036.95l0 0c0,0 285.37,338.78 537.87,403.43 252.49,64.67 460.35,59.64 759.83,-93.01 -555.9,-70.24 -600.61,-549.78 -1297.7,-310.42zm-408.13 -581.45l0 0c-205.2,109.37 -445.89,468.46 -445.89,468.46 731.43,194.48 651.44,-295.93 1099.53,-579.17 -288.41,-40.39 -448.23,1.29 -653.64,110.71zm2181.36 -482.89l0 0c-292.23,23.28 -439.83,98.51 -617.3,249.58 -177.6,151.12 -335.31,553.39 -335.31,553.39 757.32,32.7 573.97,-430.37 952.61,-802.97zm-755.04 227.88l0 0c-291.64,-8.86 -446.19,49.77 -638.5,180.72 -192.22,130.92 -392.2,513.83 -392.2,513.83 747.62,114.7 615.87,-364.97 1030.7,-694.55zm1485.13 -538.47l0 0c-289.97,56.14 -429.34,147.08 -590.3,316.99 -160.99,169.86 -274.95,587.17 -274.95,587.17 758.87,-50.13 526.65,-491.97 865.25,-904.16zm1256.56 -659.84l0 0c-233.44,97.38 -336.11,198.22 -442.07,366.63 -105.95,168.51 -127.43,528.9 -127.43,528.9 594.16,-163.97 379.17,-496.47 569.5,-895.53zm-558.76 266.8l0 0c-284.44,89.61 -414.42,196.19 -557.3,383.47 -142.91,187.39 -212.06,615.17 -212.06,615.17 752.62,-135.09 473.87,-549.57 769.36,-998.64zm625.65 69.61l0 0c-82.7,172.44 -73.67,272.33 -73.67,272.33 0,0 89.72,48.21 285.36,16.75 341.51,-55.04 418.8,-246.47 540.27,-524.79 57.82,-132.52 169.33,-307.25 169.33,-307.25 0,0 -223.66,105.9 -314.9,135.82 -283.22,92.99 -462.22,106.02 -606.39,407.14zm-13164.55 2975.34l15.12 -2.51 -12.48 0.82c43.69,-28.1 89.1,-43.72 135.89,-43.72 152.26,0 177.64,177.63 177.64,284.22l0 0c-5.08,360.35 -334.97,761.3 -801.91,766.38 88.69,-396.97 265.22,-860.64 485.74,-1005.19zm10295.63 -6096.18l0 0c0,0 443.41,12.96 661.21,-133.35 217.72,-146.29 353.82,-305.89 441.61,-634.51 -422.97,371.73 -812.95,88.08 -1102.82,767.86zm-551.94 658.48l0 0c0,0 438.81,61.66 670.37,-59.17 231.54,-120.86 383.43,-263.71 505.19,-578.62 -460.65,320.41 -815.55,-5.86 -1175.56,637.79zm1031.43 -1376.62l0 0c0,0 443.07,-36.89 644.36,-207.96 201.15,-171.09 319.62,-346.28 371.81,-686.09 -379.1,420.25 -800.64,184.83 -1016.17,894.05zm-2328.8 2493.68l0 0c0,0 415.09,154.4 666.66,86.53 251.57,-67.9 430.09,-174.49 615.2,-454.29 -518.69,211.94 -792.46,-183.88 -1281.86,367.76zm2714.47 -3260.3l0 0c0,0 361.81,-70.66 513.67,-228.14 151.92,-157.52 235.45,-310.12 254.93,-594.16 -306.43,355.01 -667.33,219.71 -768.6,822.3zm-800.44 2232.5l0 0c-492.42,267.14 -808.38,-96.7 -1234.97,504.36 0,0 429.12,108.81 671.92,14.18 242.93,-94.7 408.81,-219.94 563.05,-518.54zm-1439.21 -201.1l0 0c-257.97,135.27 -363.51,262.23 -466.51,470.86 -103.01,208.55 -89.05,640.58 -89.05,640.58 707.74,-268.49 356.25,-620.36 555.56,-1111.44zm1024.3 -1192.94l0 0c-223.75,189.25 -300,336.3 -356.12,562.49 -56.06,226.2 50.28,645.04 50.28,645.04 634.78,-414.82 214.93,-684.36 305.84,-1207.53zm-480.54 625.25l0 0c-242.21,162.84 -333.58,300.49 -413.45,518.96 -79.95,218.44 -19.22,646.17 -19.22,646.17 674.97,-342.83 286.92,-655.77 432.67,-1165.13zm892.71 -1303.35l0 0c-202.75,214.56 -263.06,369.85 -294.8,601.71 -31.85,231.84 118.76,637.24 118.76,637.24 587.56,-483.03 140.95,-706.71 176.04,-1238.95zm695.5 -209.11l0 0c387.43,-479.25 18.7,-624.55 -59.26,-1059.63 -132.93,215.27 -157.63,356.99 -145.49,555.64 12.1,198.66 204.75,503.99 204.75,503.99zm-357.69 -517.09l0 0c-178.87,238.64 -222.27,400.96 -229.2,636.48 -6.9,235.51 186.26,623.45 186.26,623.45 533.08,-548.1 64.34,-723.01 42.94,-1259.93zm647.61 -43.98l0 0c0,0 101.1,-13.01 241.7,-152.72 245.36,-243.77 196.53,-444.4 133.01,-741.34 -30.22,-141.37 -41.64,-348.31 -41.64,-348.31 0,0 -119.78,216.48 -176.51,293.97 -175.95,240.63 -313.69,355.43 -255.44,684.2 33.42,188.34 98.88,264.2 98.88,264.2zm-12619.95 4703.46l0 0c240.4,-140.24 525.1,-251.21 841.01,-315 315.55,-64.04 657.22,-98.13 1013.06,-95.54l66.82 0.26 31.64 0.15 34.35 0.9 68.85 1.84 65.89 3.29c87.52,3.7 178.43,11.46 268.17,20.77 180.24,19.92 361.91,50.07 544.15,89.05 364.74,76.72 730.52,189.87 1097.19,308.95 366.28,120.81 734.62,246.57 1102.88,359.22 368.33,112.17 737.2,209.09 1099.57,279.45 362.3,70.65 717.77,113.26 1055.27,133.69 337.63,21.79 657.68,13.22 950.96,-5.25 293.68,-18.86 560.49,-57.01 795.2,-96.05 187.3,-31.1 353.18,-67.69 496.94,-101.27 198.84,-27.57 398.78,-60.13 600.02,-98.67 155.18,128.92 482.95,361.23 717.74,385.08 323.51,32.77 578.62,-12.03 918.64,-255.17 -416.1,15.26 -637.49,-387.4 -1061,-395.62 356.75,-255.22 226.53,-673.57 505.86,-964.87 -360.17,42.64 -539.8,143.59 -752.97,340.52 -153.74,142 -293.33,495.89 -366.53,682.54 -851.3,207.07 -1683.92,309.13 -2523.37,310.42 -86.58,-6.68 -174.28,-14.24 -263.33,-23.18 -305.81,-31.21 -624.51,-84.7 -950.02,-157.4 920.57,-122.41 1780.87,-378.23 2651.39,-788.47 146.83,68.42 448.72,182.05 636.1,152.59 257.88,-40.65 447.07,-127.56 661.38,-385.82 -310.57,128.68 -514.59,-200.81 -904.77,-90.66 275.42,-304.1 21.02,-616.02 195.55,-852.79 -271.03,106.73 -389.92,221.75 -515.23,418.24 -90.4,141.77 -126.38,445.25 -145.1,605.11 -868.62,462.68 -1734.03,760.12 -2672.61,920.39 -341.48,-79.44 -689.54,-180.23 -1041.06,-294.88 -360.52,-116.37 -724.31,-248.32 -1094.79,-370.97 -370.04,-123.4 -747.51,-238.9 -1131,-317.58 -191.35,-40.3 -384.59,-69.55 -576.61,-88.61 -96.53,-8.67 -191.17,-19.16 -288.27,-22.04l-72.28 -7.51 -68.89 0 -34.34 0 -36.92 6.75 -69.84 7.09c-185.8,5.84 -368.85,18.43 -547.39,41.92 -178.48,22.88 -352.71,54.45 -519.45,99.09 -333.12,88.03 -640.24,219.43 -889.3,394.37 -249.66,173.44 -443.62,380.3 -573.95,586.64 -132.95,205.13 -213.19,401.88 -263.25,566.48 -51.3,164.49 -75.51,296.93 -90.06,387.31 -7.79,45 -11.08,79.74 -14.36,103.09 -2.97,23.43 -4.49,35.44 -4.49,35.44 0,0 13.42,-46.66 38.62,-134.23 26.28,-86.69 68.48,-213.36 135.5,-367.13 33.33,-77 75.62,-159.56 125.43,-246.42 49.2,-87.37 109.93,-176.97 180.54,-267.16 141.88,-179.75 332.06,-357.21 572.46,-498.35zm15697.53 5289.32c-40.6,15.22 -96.43,15.22 -131.96,15.22 -152.26,0 -192.86,-65.98 -192.86,-152.26 0,-65.98 25.38,-142.11 40.6,-208.09l208.09 -969.39c10.15,-35.53 10.15,-76.13 10.15,-111.66 0,-334.97 -299.44,-644.57 -583.66,-644.57 -223.32,0 -456.79,121.81 -664.87,274.07l274.06 -1289.14 -751.15 101.51 -617.49 2895.82c-84.23,55.82 -166.29,93.56 -240.25,93.56 -203.01,0 -253.77,-81.2 -253.77,-192.86 0,-45.68 10.15,-101.51 20.31,-157.34l365.42 -1725.62 -730.85 0 -30.45 131.96c-91.36,-76.13 -218.24,-126.88 -340.05,-126.88 -1015.07,0 -1329.75,1045.52 -1329.75,1918.48 0,299.45 142.11,644.57 629.35,644.57 309.6,0 537.99,-208.09 690.25,-416.18 65.98,263.92 289.29,385.73 619.19,385.73 161.44,0 352.42,-112.26 537.83,-261.05l-55.67 261.05 730.86 0 436.48 -2045.37c101.5,-76.13 197.94,-111.66 319.74,-111.66 157.34,0 228.4,152.26 228.4,314.67 0,40.61 -5.08,81.21 -10.15,116.74l-192.87 913.56c-20.3,86.28 -30.45,172.56 -30.45,253.77 0,319.75 157.34,558.29 517.69,558.29 172.56,0 385.72,-30.45 527.83,-466.93zm-3578.13 -1781.45c71.06,0 167.49,20.3 248.69,91.35l-284.22 1344.97c-15.22,60.91 -25.37,116.74 -30.45,167.49 -96.43,142.11 -208.09,253.77 -324.82,253.77 -126.89,0 -294.37,-55.83 -294.37,-360.35 0,-690.25 304.52,-1497.23 685.17,-1497.23zm-1679.95 -390.81c-167.48,0 -289.29,142.11 -289.29,248.7 0,142.11 65.98,284.22 213.16,284.22 30.45,0 76.13,-10.16 106.59,-20.31 0,553.22 -340.05,1664.72 -837.44,1664.72 -147.18,0 -192.86,-65.98 -192.86,-162.41 0,-55.83 10.15,-116.73 25.37,-187.79l365.43 -1725.62 -730.85 0 -365.43 1725.62c-15.22,60.91 -25.37,121.81 -25.37,172.56 -121.81,101.51 -248.7,177.64 -355.28,177.64 -203.01,0 -253.77,-81.2 -253.77,-192.86 0,-45.68 10.15,-101.51 20.3,-157.34l365.43 -1725.62 -730.85 0 -365.43 1725.62c-18.36,87.23 -28.42,166.17 -30.17,236.79 -94.36,66.55 -186.84,113.41 -269.28,113.41 -203.01,0 -253.77,-81.2 -253.77,-192.86 0,-45.68 10.15,-101.51 20.31,-157.34l365.42 -1725.62 -730.85 0 -30.45 131.96c-91.36,-76.13 -218.24,-126.88 -340.05,-126.88 -1015.07,0 -1329.75,1045.52 -1329.75,1918.48 0,299.45 142.11,644.57 629.35,644.57 309.6,0 537.99,-208.09 690.25,-416.18 65.98,263.92 289.29,385.73 619.19,385.73 195.67,0 434.72,-164.93 654.68,-359.92 71.74,246.27 291.95,359.92 609.09,359.92 213.16,0 487.23,-203.01 725.78,-421.25 50.75,289.29 274.07,421.25 619.19,421.25 1025.22,0 1426.18,-1390.65 1426.18,-2182.4 0,-263.92 -106.59,-456.79 -324.83,-456.79l0 0zm-4278.53 390.81c71.06,0 167.49,20.3 248.69,91.35l-284.22 1344.97c-15.22,60.91 -25.37,116.74 -30.45,167.49 -96.43,142.11 -208.09,253.77 -324.82,253.77 -126.89,0 -294.37,-55.83 -294.37,-360.35 0,-690.25 304.52,-1497.23 685.17,-1497.23zm-1410.95 -949.1c0,-568.44 -583.67,-609.04 -852.66,-609.04 -603.97,0 -1207.94,411.1 -1207.94,944.02 0,756.23 1096.28,964.32 1096.28,1918.48 0,375.58 -157.34,725.78 -558.29,725.78 -238.54,0 -502.46,-147.19 -502.46,-487.24 0,-350.19 182.71,-522.76 593.81,-558.28 -40.6,-182.72 -182.71,-258.85 -411.1,-258.85 -390.8,0 -746.08,253.77 -746.08,730.85 0,730.86 715.63,817.14 1121.66,817.14 817.13,0 1344.97,-461.86 1344.97,-1177.49 0,-1131.8 -1141.96,-1177.48 -1141.96,-1974.31 0,-279.15 192.86,-441.56 472.01,-441.56 268.99,0 370.5,162.41 370.5,340.05 0,167.49 -91.36,355.28 -228.39,436.48 65.98,76.13 147.19,106.58 228.39,106.58 263.92,0 421.26,-223.31 421.26,-512.61l0 0z"/>
 </g>
</svg>
